# AST/ASF file generated using VICON BodyLanguage
# -----------------------------------------------
:version 1.10
:name VICON
:units
  mass 1.0
  length 0.45
  angle deg
:documentation
   .ast/.asf automatically generated from VICON data using
   VICON BodyBuilder and BodyLanguage model FoxedUp or BRILLIANT.MOD
:root
   order TX TY TZ RX RY RZ
   axis XYZ
   position 0 0 0  
   orientation 0 0 0 
:bonedata
  begin
     id 1 
     name lhipjoint
     direction 0.570549 -0.739093 0.358072 
     length 2.41801 
     axis 0 0 0  XYZ
  end
  begin
     id 2 
     name lfemur
     direction 0.34202 -0.939693 0  
     length 7.44434  
     axis 0 0 20  XYZ
    dof rx ry rz
    limits (-160.0 20.0)
           (-70.0 70.0)
           (-60.0 70.0)
  end
  begin
     id 3 
     name ltibia
     direction 0.34202 -0.939693 0   
     length 7.60047   
     axis 0 0 20   XYZ
    dof rx
    limits (-10.0 170.0)
  end
  begin
     id 4 
     name lfoot
     direction 0.0909041 -0.249757 0.964032   
     length 2.03437   
     axis -90 7.62852e-016 20   XYZ
    dof rx rz
    limits (-45.0 90.0)
           (-70.0 20.0)
  end
  begin
     id 5 
     name ltoes
     direction 1.53547e-011 -4.2174e-011 1   
     length 1.02054   
     axis -90 7.62852e-016 20   XYZ
    dof rx
    limits (-90.0 20.0)
  end
  begin
     id 6 
     name rhipjoint
     direction -0.558096 -0.746754 0.361784   
     length 2.3932  
     axis 0 0 0  XYZ 
  end
  begin
     id 7 
     name rfemur
     direction -0.34202 -0.939693 0   
     length 7.3886   
     axis 0 0 -20   XYZ
    dof rx ry rz
    limits (-160.0 20.0)
           (-70.0 70.0)
           (-70.0 60.0)
  end
  begin
     id 8 
     name rtibia
     direction -0.34202 -0.939693 0   
     length 7.4839   
     axis 0 0 -20   XYZ
    dof rx
    limits (-10.0 170.0)
 end
 begin
     id 9 
     name rfoot
     direction -0.114619 -0.314914 0.942174   
     length 2.25127  
     axis -90 -7.62852e-016 -20   XYZ
    dof rx rz
    limits (-45.0 90.0)
           (-20.0 70.0)
  end
  begin
     id 10 
     name rtoes
     direction -1.53518e-011 -4.21881e-011 1   
     length 1.11821   
     axis -90 -7.62852e-016 -20   XYZ
    dof rx
    limits (-90.0 20.0)
  end
  begin
     id 11 
     name lowerback
     direction -0.00902269 0.996426 -0.0839821   
     length 2.25052   
     axis 0 0 0   XYZ
    dof rx ry rz
    limits (-20.0 45.0)
           (-30.0 30.0)
           (-30.0 30.0)
  end
  begin
     id 12 
     name upperback
     direction 0.0370973 0.999169 -0.0168941   
     length 2.24876   
     axis 0 0 0   XYZ
    dof rx ry rz
    limits (-20.0 45.0)
           (-30.0 30.0)
           (-30.0 30.0)
  end
  begin
     id 13 
     name thorax
     direction 0.0402726 0.998931 0.0227027   
     length 2.26408   
     axis 0 0 0   XYZ
    dof rx ry rz
    limits (-20.0 45.0)
           (-30.0 30.0)
           (-30.0 30.0)
  end
  begin
     id 14 
     name lowerneck
     direction -0.0733697 0.98508 0.155675   
     length 1.58204   
     axis 0 0 0   XYZ
    dof rx ry rz
    limits (-20.0 45.0)
           (-30.0 30.0)
           (-30.0 30.0)
  end
  begin
     id 15 
     name upperneck
     direction 0.0426554 0.993501 -0.105526   
     length 1.61222   
     axis 0 0 0   XYZ
    dof rx ry rz
    limits (-20.0 45.0)
           (-30.0 30.0)
           (-30.0 30.0)
  end
  begin
     id 16
     name head
     direction 0.020792 0.998384 -0.0528868  
     length 1.61527  
     axis 0 0 0   XYZ
    dof rx ry rz
    limits (-20.0 45.0)
           (-30.0 30.0)
           (-30.0 30.0)
  end
  begin
     id 17 
     name lclavicle
     direction 0.967109 0.155462 -0.201325  
     length 3.59357  
     axis 0 0 0   XYZ
    dof ry rz
    limits (-20.0 10.0)
           (0.0 20.0)
  end
  begin
     id 18 
     name lhumerus
     direction 1 -4.48968e-011 2.38195e-027   
     length 5.38154   
     axis 180 -30 -90   XYZ
    dof rx ry rz
    limits (-60.0 90.0)
           (-90.0 90.0)
           (-90.0 90.0)
  end
  begin
     id 19
     name lradius
     direction 1 -4.48961e-011 4.85371e-027   
     length 3.33312   
     axis 180 -30 -90   XYZ
    dof rx
    limits (-10.0 170.0)
  end
  begin
     id 20
     name lwrist
     direction 1 -4.48961e-011 4.76515e-027   
     length 1.66656   
     axis -3.27502e-015 90 90   XYZ
    dof ry
    limits (-180.0 0.0)
 end
  begin
     id 21 
     name lhand
     direction 1 -4.48951e-011 9.53074e-027   
     length 0.710789   
     axis -6.08098e-015 90 90   XYZ
    dof rx rz
    limits (-90.0 90.0)
           (-45.0 45.0)
  end
  begin
     id 22 
     name lfingers
     direction 1 -4.48953e-011 1.90613e-026   
     length 0.573057   
     axis -1.21619e-014 90 90   XYZ
    dof rx
    limits (0.0 90.0)
  end
  begin
     id 23
     name lthumb
     direction 0.707107 -6.34973e-011 0.707107   
     length 0.822798   
     axis -90 45 -9.86923e-015   XYZ
    dof rx rz
    limits (-45.0 45.0)
           (-45.0 45.0)
  end
  begin
     id 24 
     name rclavicle
     direction -0.9585 0.265289 -0.104398   
     length 3.42039  
     axis 0 0 0   XYZ 
    dof ry rz
    limits (-10.0 20.0)
           (-20.0 0.0)
  end
  begin
     id 25 
     name rhumerus
     direction -1 -4.48977e-011 2.21478e-027  
     length 5.16954   
     axis 180 30 90   XYZ
    dof rx ry rz
    limits (-90.0 60.0)
           (-90.0 90.0)
           (-90.0 90.0)
  end
  begin
     id 26 
     name rradius
     direction -1 -4.48967e-011 5.63677e-027   
     length 3.38287   
     axis 180 30 90   XYZ
    dof rx
    limits (-10.0 170.0)
  end
  begin
     id 27 
     name rwrist
     direction -1 -4.48967e-011 4.76501e-027   
     length 1.69144   
     axis -3.27502e-015 -90 -90   XYZ
    dof ry
    limits (-180.0 0.0)
  end
  begin
     id 28
     name rhand
     direction -1 -4.48902e-011 9.53292e-027   
     length 0.817967   
     axis -6.08098e-015 -90 -90   XYZ
    dof rx rz
    limits (-90.0 90.0)
           (-45.0 45.0)
  end
  begin
     id 29
     name rfingers
     direction -1 -4.49012e-011 1.90561e-026   
     length 0.659466   
     axis -1.21619e-014 -90 -90   XYZ
    dof rx
    limits (0.0 90.0)
  end
  begin
     id 30
     name rthumb
     direction -0.707107 -6.34944e-011 0.707107   
     length 0.946865   
     axis -90 -45 9.86923e-015   XYZ
    dof rx rz
    limits (-45.0 45.0)
           (-45.0 45.0)
  end
:hierarchy
  begin
    root lhipjoint rhipjoint lowerback
    lhipjoint lfemur
    lfemur ltibia
    ltibia lfoot
    lfoot ltoes
    rhipjoint rfemur
    rfemur rtibia
    rtibia rfoot
    rfoot rtoes
    lowerback upperback
    upperback thorax
    thorax lowerneck lclavicle rclavicle
    lowerneck upperneck
    upperneck head
    lclavicle lhumerus
    lhumerus lradius
    lradius lwrist
    lwrist lhand lthumb
    lhand lfingers
    rclavicle rhumerus
    rhumerus rradius
    rradius rwrist
    rwrist rhand rthumb
    rhand rfingers
  end

#!OML:ASF F:\twosubjects\two\wednesday\Session 1\Justin1.ASF
:FULLY-SPECIFIED
:DEGREES
102
root 9.01506 16.0243 -19.735 -311.38 78.4965 -311.561
lowerback 8.56088 -4.01482 -6.31896
upperback 2.03139 -5.82986 -0.158814
thorax -2.05222 -2.86142 3.92612
lowerneck -10.9594 -10.004 -16.6943
upperneck 6.17696 -12.775 17.6121
head 5.94563 -5.74415 7.09492
rclavicle -3.95581e-014 -3.97569e-015
rhumerus -54.8537 5.80355 -39.8335
rradius 109.269
rwrist -66.7622
rhand -21.6147 5.91168
rfingers 7.12502
rthumb 4.78079 -24.0144
lclavicle -3.95581e-014 -3.97569e-015
lhumerus -57.9821 21.4823 55.7909
lradius 36.9809
lwrist 5.95761
lhand -8.74077 35.9471
lfingers 7.12502
lthumb 17.196 65.2063
rfemur -25.8117 1.43265 29.7023
rtibia 51.0074
rfoot -23.4653 -8.68861
rtoes 32.3749
lfemur -22.9364 6.78101 -6.85057
ltibia 83.4328
lfoot 1.27402 -5.20219
ltoes -9.2275
103
root 9.1752 16.1521 -19.718 -317.927 77.0652 -318.075
lowerback 8.157 -4.06475 -5.90244
upperback 1.92919 -5.84598 -0.233856
thorax -1.98435 -2.8737 3.5917
lowerneck -10.4592 -9.92885 -15.4843
upperneck 5.82965 -12.7425 16.4537
head 5.57552 -5.78979 6.53713
rclavicle -1.07443e-013 1.59028e-015
rhumerus -54.014 6.56084 -39.7454
rradius 109.29
rwrist -66.8769
rhand -21.1142 5.92894
rfingers 7.12502
rthumb 5.26406 -23.9857
lclavicle -1.07443e-013 1.59028e-015
lhumerus -57.8222 21.0806 55.9118
lradius 36.6968
lwrist 5.65938
lhand -8.87931 35.8997
lfingers 7.12502
lthumb 17.0626 65.1704
rfemur -23.7799 1.6702 29.6282
rtibia 48.9413
rfoot -23.0101 -7.08511
rtoes 34.9282
lfemur -24.2291 6.39734 -7.37173
ltibia 84.4611
lfoot 0.0481027 -2.70174
ltoes -8.35724
104
root 9.33517 16.2872 -19.6977 -322.768 75.5193 -323.132
lowerback 7.4735 -4.03308 -5.47881
upperback 1.79717 -5.7414 -0.306653
thorax -1.80399 -2.82976 3.22521
lowerneck -11.0576 -9.97957 -17.514
upperneck 7.17755 -12.7999 18.1797
head 6.37628 -5.73183 7.42024
rclavicle -4.41302e-014 3.18055e-015
rhumerus -53.5511 7.07315 -39.7339
rradius 109.408
rwrist -66.6015
rhand -21.1213 6.01297
rfingers 7.12502
rthumb 5.25721 -23.9018
lclavicle -4.41302e-014 3.18055e-015
lhumerus -57.472 20.5376 56.1333
lradius 36.556
lwrist 5.31163
lhand -8.81129 35.8122
lfingers 7.12502
lthumb 17.1281 65.0772
rfemur -21.9676 1.71275 29.5711
rtibia 46.8276
rfoot -22.4017 -5.70245
rtoes 36.9445
lfemur -25.8372 5.6865 -8.01693
ltibia 85.3376
lfoot -1.34896 -0.392281
ltoes -7.65051
105
root 9.49193 16.4088 -19.6726 -326.871 73.8536 -327.241
lowerback 6.88059 -3.86871 -5.30186
upperback 1.94249 -5.46806 -0.173497
thorax -1.35369 -2.7122 3.19038
lowerneck -11.0281 -9.97186 -20.2662
upperneck 7.09181 -12.691 20.7016
head 6.72257 -5.6257 8.78898
rclavicle -2.78299e-014 4.77083e-015
rhumerus -52.7721 7.21058 -39.3825
rradius 109.373
rwrist -66.5756
rhand -21.3342 6.30479
rfingers 7.12502
rthumb 5.05169 -23.615
lclavicle -2.78299e-014 4.77083e-015
lhumerus -56.8439 20.3807 56.7444
lradius 36.5508
lwrist 4.75524
lhand -8.16545 36.1397
lfingers 7.12502
lthumb 17.7496 65.3496
rfemur -19.866 1.30662 29.576
rtibia 44.6352
rfoot -21.417 -4.8708
rtoes 33.8976
lfemur -27.163 4.58949 -8.66582
ltibia 86.0561
lfoot -2.8195 1.30778
ltoes -9.47721
106
root 9.6407 16.5376 -19.6406 -330.475 72.0089 -330.717
lowerback 6.55641 -3.60699 -5.25171
upperback 2.09051 -5.09019 0.0207442
thorax -1.0418 -2.53723 3.30785
lowerneck -11.0818 -10.1692 -20.6007
upperneck 6.88468 -12.8776 20.6966
head 6.73029 -5.72571 8.80735
rclavicle 3.97569e-016 -1.59028e-015
rhumerus -51.9372 7.26379 -38.8646
rradius 109.199
rwrist -66.776
rhand -20.8274 6.30892
rfingers 7.12502
rthumb 5.54104 -23.5986
lclavicle 3.97569e-016 -1.59028e-015
lhumerus -56.1995 20.4385 57.2161
lradius 36.4222
lwrist 3.87871
lhand -8.04153 36.4654
lfingers 7.12502
lthumb 17.8689 65.6645
rfemur -17.8077 0.930787 29.5015
rtibia 42.5792
rfoot -20.1937 -3.85545
rtoes 30.6753
lfemur -28.2342 3.57598 -9.29129
ltibia 86.542
lfoot -3.88563 1.85774
ltoes -12.2583
107
root 9.77488 16.6823 -19.6279 -333.165 70.0155 -333.89
lowerback 6.0714 -3.52568 -4.89163
upperback 1.75875 -4.95194 0.0842507
thorax -1.15476 -2.46292 3.14585
lowerneck -12.6287 -10.7267 -18.3198
upperneck 9.08108 -13.6708 17.9975
head 7.44898 -6.08504 7.31156
rclavicle 2.98177e-014 1.35174e-014
rhumerus -51.2216 7.89617 -38.7955
rradius 109.075
rwrist -66.8031
rhand -20.0699 5.87932
rfingers 7.12502
rthumb 6.27232 -24.0078
lclavicle 2.98177e-014 1.35174e-014
lhumerus -56.2625 20.5295 56.8196
lradius 36.319
lwrist 3.16501
lhand -8.04789 36.6368
lfingers 7.12502
lthumb 17.8628 65.8365
rfemur -16.6174 0.983245 29.3174
rtibia 40.55
rfoot -18.3913 -2.46573
rtoes 30.3453
lfemur -30.0114 2.78323 -9.9242
ltibia 86.8624
lfoot -5.06294 1.77928
ltoes -13.3245
108
root 9.84492 16.8072 -19.647 -333.344 66.9538 -334.822
lowerback 6.17612 -3.32037 -5.58005
upperback 0.944102 -4.77183 -0.206417
thorax -2.04076 -2.33297 3.2614
lowerneck -11.8081 -10.1284 -17.5273
upperneck 9.02233 -13.0651 17.7738
head 7.09832 -5.825 7.23231
rclavicle -7.26558e-014 -5.56597e-015
rhumerus -50.7399 8.93869 -39.2126
rradius 109.04
rwrist -66.7513
rhand -19.6983 6.12712
rfingers 7.12502
rthumb 6.63105 -23.7491
lclavicle -7.26558e-014 -5.56597e-015
lhumerus -56.7857 20.5594 55.8559
lradius 36.3395
lwrist 2.78943
lhand -7.51394 36.5921
lfingers 7.12502
lthumb 18.3765 65.7441
rfemur -16.3344 2.11096 28.0263
rtibia 38.6107
rfoot -16.0084 -1.18835
rtoes 30.2428
lfemur -32.565 2.54552 -11.5869
ltibia 87.085
lfoot -6.13819 1.29068
ltoes -14.5752
109
root 9.97491 16.9127 -19.6336 -336.572 64.9846 -338.416
lowerback 5.94581 -3.28595 -4.68881
upperback 0.780089 -4.66071 -0.00488176
thorax -2.14711 -2.28031 2.95984
lowerneck -11.7221 -9.89001 -17.6835
upperneck 9.1501 -12.7709 18.0059
head 7.0984 -5.67898 7.3905
rclavicle 3.77691e-014 1.74931e-014
rhumerus -50.0023 9.63094 -39.3807
rradius 109.006
rwrist -66.7296
rhand -19.4917 6.89422
rfingers 7.12502
rthumb 6.83048 -22.9756
lclavicle 3.77691e-014 1.74931e-014
lhumerus -56.8691 20.7821 55.3034
lradius 36.4393
lwrist 2.56754
lhand -7.14675 36.6977
lfingers 7.12502
lthumb 18.7297 65.816
rfemur -15.0956 2.1938 28.4315
rtibia 36.7633
rfoot -14.0109 0.385217
rtoes 30.0478
lfemur -34.1809 1.91786 -11.3352
ltibia 87.1454
lfoot -7.50755 0.640487
ltoes -18.3536
110
root 10.1098 17.0171 -19.5764 -341.801 63.0565 -343.923
lowerback 5.629 -3.09852 -3.15125
upperback 1.1424 -4.27993 0.633157
thorax -1.69197 -2.11555 2.70322
lowerneck -12.4851 -10.026 -18.1256
upperneck 9.35134 -12.8143 18.1792
head 7.34795 -5.66488 7.49535
rclavicle 5.42682e-014 -2.06736e-014
rhumerus -48.7481 9.84728 -39.2242
rradius 108.9
rwrist -66.6296
rhand -19.1164 6.63023
rfingers 7.12502
rthumb 7.19281 -23.2275
lclavicle 5.42682e-014 -2.06736e-014
lhumerus -56.3369 21.0653 55.295
lradius 36.5621
lwrist 2.78144
lhand -7.27828 37.2161
lfingers 7.12502
lthumb 18.6032 66.3465
rfemur -13.5174 2.73254 30.3504
rtibia 35.2074
rfoot -11.8505 0.833951
rtoes 27.6382
lfemur -35.1717 1.84617 -9.48426
ltibia 86.9488
lfoot -8.79614 -0.676049
ltoes -18.883
111
root 10.2223 17.1334 -19.5225 -345.174 60.5412 -347.539
lowerback 5.72247 -2.72755 -2.1388
upperback 1.30401 -3.71984 0.89613
thorax -1.66333 -1.84129 2.37521
lowerneck -12.9854 -10.1805 -18.2624
upperneck 9.69834 -13.0071 18.4169
head 7.61357 -5.71624 7.56076
rclavicle 3.04141e-014 2.38542e-015
rhumerus -47.99 10.0357 -39.424
rradius 108.824
rwrist -66.5844
rhand -19.0268 5.69663
rfingers 7.12502
rthumb 7.27931 -24.1582
lclavicle 3.04141e-014 2.38542e-015
lhumerus -55.8376 20.8044 55.0642
lradius 36.8475
lwrist 3.38578
lhand -7.39385 37.7927
lfingers 7.12502
lthumb 18.492 66.9337
rfemur -12.0052 3.9926 31.6293
rtibia 33.9139
rfoot -9.7631 0.212981
rtoes 25.5736
lfemur -36.0317 1.84632 -8.33731
ltibia 86.3493
lfoot -9.75774 -2.71973
ltoes -15.6048
112
root 10.3323 17.2345 -19.4795 -347.413 57.8834 -350.093
lowerback 5.9254 -2.31384 -1.35117
upperback 1.28443 -3.12029 1.0804
thorax -1.86199 -1.54188 2.09643
lowerneck -12.4056 -10.2043 -18.4455
upperneck 9.47401 -13.1644 18.9823
head 7.53374 -5.7938 7.78267
rclavicle -8.74653e-015 -1.19271e-014
rhumerus -47.4878 10.2821 -39.527
rradius 108.602
rwrist -66.849
rhand -18.5203 5.93417
rfingers 7.12502
rthumb 7.76821 -23.9031
lclavicle -8.74653e-015 -1.19271e-014
lhumerus -55.7751 20.7317 54.4975
lradius 37.2858
lwrist 3.47372
lhand -7.17399 38.02
lfingers 7.12502
lthumb 18.7035 67.1409
rfemur -10.9971 4.18016 32.4353
rtibia 33.0333
rfoot -7.91067 -0.0867058
rtoes 24.9878
lfemur -37.0061 1.746 -7.5954
ltibia 85.5424
lfoot -11.0467 -4.70512
ltoes -16.0701
113
root 10.4473 17.3234 -19.4445 -349.473 55.2503 -352.747
lowerback 5.76863 -1.97362 -0.282206
upperback 1.39654 -2.59356 1.42216
thorax -1.71491 -1.28389 1.80337
lowerneck -13.4133 -10.3714 -18.7431
upperneck 9.96133 -13.2739 19.1743
head 7.92798 -5.78474 7.86065
rclavicle 8.07066e-014 6.36111e-015
rhumerus -46.508 10.4937 -39.3181
rradius 108.218
rwrist -67.3557
rhand -17.4723 6.81011
rfingers 7.12502
rthumb 8.77956 -22.9873
lclavicle 8.07066e-014 6.36111e-015
lhumerus -55.7667 20.9795 54.012
lradius 37.7171
lwrist 3.43454
lhand -7.12028 38.149
lfingers 7.12502
lthumb 18.7551 67.2648
rfemur -10.4719 4.04653 33.5676
rtibia 32.7965
rfoot -6.5313 -1.02129
rtoes 24.3164
lfemur -38.1993 1.69893 -6.55955
ltibia 84.5945
lfoot -12.26 -6.17941
ltoes -18.3738
114
root 10.5646 17.4096 -19.4035 -350.266 52.6451 -353.975
lowerback 5.57701 -1.71223 0.260762
upperback 1.55971 -2.21514 1.50079
thorax -1.47028 -1.09754 1.54365
lowerneck -16.3723 -11.4843 -17.5929
upperneck 12.5684 -14.5435 16.9656
head 9.2666 -6.30806 6.5906
rclavicle -1.70955e-014 -3.97569e-015
rhumerus -45.5992 10.7678 -39.2607
rradius 108.082
rwrist -67.5503
rhand -16.6176 6.74457
rfingers 7.12502
rthumb 9.60432 -23.0165
lclavicle -1.70955e-014 -3.97569e-015
lhumerus -55.4127 20.8208 53.6671
lradius 37.9258
lwrist 4.09666
lhand -7.15398 38.3257
lfingers 7.12502
lthumb 18.7227 67.4447
rfemur -10.1212 3.52568 34.1023
rtibia 33.1026
rfoot -5.60338 -2.27321
rtoes 23.505
lfemur -39.2779 1.39251 -6.26034
ltibia 83.394
lfoot -12.7953 -7.17129
ltoes -19.4603
115
root 10.6771 17.4899 -19.3528 -350.27 49.8876 -354.074
lowerback 5.65587 -1.35705 -0.0729698
upperback 1.71233 -1.76153 1.53027
thorax -1.35718 -0.871851 1.73056
lowerneck -16.5356 -11.0421 -16.6052
upperneck 11.8848 -13.8988 16.2341
head 8.80269 -6.02453 6.27459
rclavicle 3.83654e-014 -6.36111e-015
rhumerus -44.8898 11.0854 -39.0805
rradius 108.086
rwrist -67.4491
rhand -16.0302 6.36532
rfingers 7.12502
rthumb 10.171 -23.3688
lclavicle 3.83654e-014 -6.36111e-015
lhumerus -54.9684 20.3905 53.594
lradius 38.0724
lwrist 4.77437
lhand -7.00644 38.5307
lfingers 7.12502
lthumb 18.8646 67.6359
rfemur -9.84784 3.08341 34.0553
rtibia 33.8045
rfoot -5.04467 -3.61833
rtoes 22.621
lfemur -39.9942 1.14226 -6.65633
ltibia 81.9028
lfoot -13.0514 -7.8868
ltoes -20.7667
116
root 10.7923 17.5591 -19.3164 -350.414 46.9569 -354.28
lowerback 5.8463 -0.926468 -0.271955
upperback 1.71089 -1.20012 1.52162
thorax -1.47757 -0.591421 1.80018
lowerneck -16.3989 -10.8397 -17.3067
upperneck 11.9409 -13.6103 16.9281
head 8.86137 -5.87198 6.6952
rclavicle 6.36111e-015 -1.59028e-015
rhumerus -44.5245 11.5002 -38.9976
rradius 108.096
rwrist -67.2363
rhand -15.7771 6.04378
rfingers 7.12502
rthumb 10.4152 -23.6783
lclavicle 6.36111e-015 -1.59028e-015
lhumerus -54.9874 19.4218 53.379
lradius 38.5354
lwrist 5.11884
lhand -6.72716 39.0325
lfingers 7.12502
lthumb 19.1332 68.1114
rfemur -9.72234 2.62526 34.024
rtibia 34.7847
rfoot -4.94586 -4.84502
rtoes 22.3687
lfemur -40.5914 1.05185 -7.06555
ltibia 80.2323
lfoot -13.4232 -8.14628
ltoes -23.3398
